<svg xmlns="http://www.w3.org/2000/svg" xmlns:xlink="http://www.w3.org/1999/xlink" width="500" zoomAndPan="magnify" viewBox="0 0 375 374.999991" height="500" preserveAspectRatio="xMidYMid meet" version="1.0"><defs><clipPath id="8a7d9c4ffb"><path d="M 112.5 112.5 L 262.5 112.5 L 262.5 262.5 L 112.5 262.5 Z M 112.5 112.5 " clip-rule="nonzero"/></clipPath></defs><g clip-path="url(#8a7d9c4ffb)"><path fill="#ffffff" d="M 217.09375 118.214844 C 226.175781 121.960938 234.175781 127.359375 240.90625 134.09375 C 247.640625 140.824219 253.039062 148.824219 256.785156 157.90625 C 260.46875 166.925781 262.5 176.894531 262.5 187.5 C 262.5 198.105469 260.46875 208.074219 256.785156 217.09375 C 253.039062 226.175781 247.640625 234.175781 240.90625 240.90625 C 234.175781 247.640625 226.175781 253.039062 217.09375 256.785156 C 208.074219 260.46875 198.105469 262.5 187.5 262.5 C 176.894531 262.5 166.925781 260.46875 157.90625 256.785156 C 148.824219 253.039062 140.824219 247.640625 134.09375 240.90625 C 127.359375 234.175781 121.960938 226.175781 118.214844 217.09375 C 114.53125 208.074219 112.5 198.105469 112.5 187.5 C 112.5 176.894531 114.53125 166.925781 118.214844 157.90625 C 121.960938 148.824219 127.359375 140.824219 134.09375 134.09375 C 140.824219 127.359375 148.824219 121.960938 157.90625 118.214844 C 166.925781 114.53125 176.894531 112.5 187.5 112.5 C 198.105469 112.5 208.074219 114.53125 217.09375 118.214844 Z M 215.316406 252.277344 C 223.699219 248.847656 231.253906 243.765625 237.542969 237.542969 C 243.765625 231.253906 248.847656 223.699219 252.277344 215.316406 C 255.769531 206.804688 257.671875 197.46875 257.671875 187.5 C 257.671875 177.53125 255.769531 168.195312 252.277344 159.683594 C 248.847656 151.300781 243.765625 143.746094 237.542969 137.457031 C 231.253906 131.234375 223.699219 126.152344 215.316406 122.722656 C 206.804688 119.230469 197.46875 117.328125 187.5 117.328125 C 177.53125 117.328125 168.195312 119.230469 159.683594 122.722656 C 151.300781 126.152344 143.746094 131.234375 137.457031 137.457031 C 131.234375 143.746094 126.152344 151.300781 122.722656 159.683594 C 119.230469 168.195312 117.328125 177.53125 117.328125 187.5 C 117.328125 197.46875 119.230469 206.804688 122.722656 215.316406 C 126.152344 223.699219 131.234375 231.253906 137.457031 237.542969 C 143.746094 243.765625 151.300781 248.847656 159.683594 252.277344 C 168.195312 255.769531 177.53125 257.671875 187.5 257.671875 C 197.46875 257.671875 206.804688 255.769531 215.316406 252.277344 Z M 215.316406 252.277344 " fill-opacity="1" fill-rule="evenodd"/></g><path fill="#ffffff" d="M 174.925781 157.144531 C 174.800781 157.144531 174.671875 157.207031 174.542969 157.269531 C 174.226562 157.398438 173.972656 157.589844 173.71875 157.78125 C 173.527344 158.035156 173.339844 158.289062 173.210938 158.605469 C 173.148438 158.730469 173.085938 158.859375 173.085938 158.984375 C 173.019531 159.113281 173.019531 159.175781 173.019531 159.304688 L 173.019531 161.78125 L 201.597656 161.78125 L 201.597656 159.304688 C 201.597656 159.175781 201.597656 159.113281 201.535156 158.984375 C 201.535156 158.859375 201.472656 158.730469 201.40625 158.605469 C 201.28125 158.351562 201.089844 158.035156 200.835938 157.84375 C 200.582031 157.589844 200.328125 157.398438 200.011719 157.269531 C 199.882812 157.207031 199.757812 157.144531 199.628906 157.144531 C 199.503906 157.082031 199.4375 157.082031 199.3125 157.082031 L 175.242188 157.082031 C 175.117188 157.082031 175.054688 157.082031 174.925781 157.144531 Z M 168.195312 159.304688 C 168.195312 158.796875 168.257812 158.351562 168.386719 157.90625 C 168.449219 157.460938 168.640625 157.015625 168.828125 156.574219 C 169.148438 155.746094 169.71875 155.046875 170.351562 154.414062 C 170.988281 153.777344 171.6875 153.207031 172.511719 152.890625 C 172.957031 152.699219 173.402344 152.507812 173.847656 152.445312 C 174.289062 152.316406 174.734375 152.253906 175.242188 152.253906 L 199.3125 152.253906 C 199.820312 152.253906 200.265625 152.316406 200.710938 152.445312 C 201.152344 152.507812 201.597656 152.699219 202.042969 152.890625 C 202.867188 153.207031 203.566406 153.777344 204.203125 154.414062 C 204.902344 154.984375 205.410156 155.746094 205.789062 156.574219 C 205.980469 156.953125 206.171875 157.398438 206.234375 157.84375 C 206.359375 158.351562 206.425781 158.796875 206.425781 159.304688 L 206.425781 161.78125 L 223.953125 161.78125 C 227.636719 161.78125 231.382812 165.464844 231.382812 169.148438 L 231.382812 175.816406 L 192.835938 188.453125 C 192.582031 188.324219 192.328125 188.261719 192.136719 188.199219 C 191.882812 188.136719 191.5625 188.136719 191.308594 188.136719 L 183.308594 188.136719 C 183.054688 188.136719 182.738281 188.136719 182.484375 188.199219 C 182.292969 188.261719 182.039062 188.324219 181.847656 188.390625 L 143.300781 175.816406 L 143.300781 169.148438 C 143.300781 165.464844 146.984375 161.78125 150.667969 161.78125 L 168.195312 161.78125 Z M 183.246094 191.375 L 191.375 191.375 C 191.4375 191.375 191.5 191.375 191.5625 191.375 C 191.628906 191.4375 191.753906 191.5 191.820312 191.628906 C 191.945312 191.691406 192.007812 191.820312 192.074219 191.882812 C 192.074219 191.945312 192.074219 191.945312 192.074219 192.007812 L 192.136719 192.074219 L 192.136719 194.804688 L 192.074219 194.867188 C 192.074219 194.929688 192.074219 194.992188 192.074219 194.992188 C 192.007812 195.121094 191.945312 195.246094 191.820312 195.3125 C 191.753906 195.4375 191.628906 195.5 191.5 195.566406 C 191.5 195.566406 191.4375 195.566406 191.375 195.566406 L 191.308594 195.628906 L 183.308594 195.628906 L 183.246094 195.566406 C 183.179688 195.566406 183.117188 195.566406 183.117188 195.566406 C 182.992188 195.5 182.863281 195.4375 182.800781 195.3125 C 182.671875 195.246094 182.609375 195.121094 182.546875 194.992188 C 182.546875 194.992188 182.546875 194.929688 182.546875 194.867188 L 182.546875 192.007812 C 182.546875 191.945312 182.546875 191.945312 182.546875 191.882812 C 182.609375 191.820312 182.671875 191.691406 182.800781 191.628906 C 182.863281 191.5 182.992188 191.4375 183.054688 191.375 C 183.117188 191.375 183.179688 191.375 183.246094 191.375 Z M 195.246094 191.246094 C 195.246094 191.183594 195.183594 191.121094 195.183594 191.054688 L 231.382812 179.179688 L 231.382812 212.585938 C 231.382812 216.269531 227.636719 220.015625 223.953125 220.015625 L 150.667969 220.015625 C 146.984375 220.015625 143.300781 216.269531 143.300781 212.585938 L 143.300781 179.179688 L 179.433594 191.054688 C 179.433594 191.121094 179.371094 191.183594 179.371094 191.246094 C 179.308594 191.5 179.308594 191.820312 179.308594 192.074219 L 179.308594 194.804688 C 179.308594 195.058594 179.308594 195.375 179.371094 195.628906 C 179.433594 195.882812 179.5 196.136719 179.625 196.390625 C 179.816406 196.835938 180.132812 197.214844 180.515625 197.597656 C 180.894531 197.976562 181.277344 198.296875 181.722656 198.488281 C 181.976562 198.613281 182.230469 198.675781 182.484375 198.742188 C 182.738281 198.804688 183.054688 198.867188 183.308594 198.867188 L 191.308594 198.867188 C 191.5625 198.867188 191.882812 198.804688 192.136719 198.742188 C 192.390625 198.675781 192.644531 198.613281 192.898438 198.488281 C 193.34375 198.296875 193.722656 197.976562 194.105469 197.597656 C 194.484375 197.214844 194.804688 196.835938 194.992188 196.390625 C 195.121094 196.136719 195.183594 195.882812 195.246094 195.628906 C 195.3125 195.375 195.375 195.058594 195.375 194.804688 L 195.375 192.074219 C 195.375 191.820312 195.3125 191.5 195.246094 191.246094 Z M 195.246094 191.246094 " fill-opacity="1" fill-rule="evenodd"/></svg>